<mxfile modified="2020-03-02T22:01:12.071Z" host="www.draw.io" agent="Mozilla/5.0 (X11; Linux x86_64; rv:69.0) Gecko/20100101 Firefox/69.0" etag="dWJXzpGN8L_g5PyZY1S9" version="12.7.9" type="github">
  <diagram id="f106602c-feb2-e66a-4537-3a34d633f6aa" name="Page-1">
    <mxGraphModel dx="864" dy="776" grid="1" gridSize="10" guides="1" tooltips="1" connect="1" arrows="1" fold="1" page="1" pageScale="1" pageWidth="1169" pageHeight="827" background="#ffffff" math="0" shadow="0">
      <root>
        <mxCell id="0" />
        <mxCell id="1" parent="0" />
        <mxCell id="2" value="&lt;div&gt;D4 Protocol Outline&lt;/div&gt;" style="fillColor=#4DA1F5;strokeColor=none;shadow=1;gradientColor=none;fontSize=14;align=left;spacingLeft=50;fontColor=#ffffff;html=1;" parent="1" vertex="1">
          <mxGeometry x="34.5" y="40" width="1100" height="40" as="geometry" />
        </mxCell>
        <mxCell id="16" value="" style="rounded=1;absoluteArcSize=1;arcSize=2;html=1;strokeColor=none;gradientColor=none;shadow=0;dashed=0;strokeColor=none;fontSize=12;fontColor=#9E9E9E;align=left;verticalAlign=top;spacing=10;spacingTop=-4;fillColor=#E0E0E0;" parent="1" vertex="1">
          <mxGeometry x="34.5" y="740" width="1100" height="30" as="geometry" />
        </mxCell>
        <mxCell id="adgGO3WTwog3rF3tSFoA-414" value="" style="shape=ext;double=1;rounded=0;whiteSpace=wrap;html=1;" parent="1" vertex="1">
          <mxGeometry x="50" y="100" width="220" height="620" as="geometry" />
        </mxCell>
        <mxCell id="adgGO3WTwog3rF3tSFoA-416" value="" style="shape=ext;double=1;rounded=0;whiteSpace=wrap;html=1;" parent="1" vertex="1">
          <mxGeometry x="350" y="420" width="470" height="300" as="geometry" />
        </mxCell>
        <mxCell id="adgGO3WTwog3rF3tSFoA-417" value="" style="shape=ext;double=1;rounded=0;whiteSpace=wrap;html=1;" parent="1" vertex="1">
          <mxGeometry x="370" y="100" width="470" height="280" as="geometry" />
        </mxCell>
        <mxCell id="adgGO3WTwog3rF3tSFoA-418" value="" style="shape=ext;double=1;rounded=0;whiteSpace=wrap;html=1;" parent="1" vertex="1">
          <mxGeometry x="890" y="100" width="220" height="620" as="geometry" />
        </mxCell>
        <mxCell id="adgGO3WTwog3rF3tSFoA-419" value="Client&amp;nbsp; 1" style="text;html=1;align=center;verticalAlign=middle;whiteSpace=wrap;rounded=0;fontFamily=Helvetica;fontStyle=1;fontSize=24;" parent="1" vertex="1">
          <mxGeometry x="60" y="110" width="110" height="20" as="geometry" />
        </mxCell>
        <mxCell id="adgGO3WTwog3rF3tSFoA-420" value="Server 1" style="text;html=1;strokeColor=none;fillColor=none;align=center;verticalAlign=middle;whiteSpace=wrap;rounded=0;fontSize=24;fontStyle=1" parent="1" vertex="1">
          <mxGeometry x="400" y="110" width="110" height="20" as="geometry" />
        </mxCell>
        <mxCell id="adgGO3WTwog3rF3tSFoA-421" value="Server 2" style="text;html=1;strokeColor=none;fillColor=none;align=center;verticalAlign=middle;whiteSpace=wrap;rounded=0;fontSize=24;fontStyle=1" parent="1" vertex="1">
          <mxGeometry x="355" y="430" width="130" height="20" as="geometry" />
        </mxCell>
        <mxCell id="adgGO3WTwog3rF3tSFoA-422" value="Client 2" style="text;html=1;strokeColor=none;fillColor=none;align=center;verticalAlign=middle;whiteSpace=wrap;rounded=0;fontSize=24;fontStyle=1" parent="1" vertex="1">
          <mxGeometry x="900" y="110" width="100" height="20" as="geometry" />
        </mxCell>
        <mxCell id="adgGO3WTwog3rF3tSFoA-477" style="edgeStyle=orthogonalEdgeStyle;rounded=0;orthogonalLoop=1;jettySize=auto;html=1;elbow=vertical;jumpStyle=arc;jumpSize=12;" parent="1" source="adgGO3WTwog3rF3tSFoA-426" edge="1">
          <mxGeometry relative="1" as="geometry">
            <mxPoint x="720" y="600" as="targetPoint" />
          </mxGeometry>
        </mxCell>
        <mxCell id="adgGO3WTwog3rF3tSFoA-426" value="" style="strokeColor=#dddddd;shadow=1;strokeWidth=1;rounded=1;absoluteArcSize=1;arcSize=2;" parent="1" vertex="1">
          <mxGeometry x="350" y="140" width="160" height="40" as="geometry" />
        </mxCell>
        <mxCell id="adgGO3WTwog3rF3tSFoA-427" value="Send Message" style="dashed=0;connectable=0;html=1;fillColor=#5184F3;strokeColor=none;shape=mxgraph.gcp2.hexIcon;prIcon=cloud_endpoints;part=1;labelPosition=right;verticalLabelPosition=middle;align=left;verticalAlign=middle;spacingLeft=5;fontColor=#999999;fontSize=12;" parent="adgGO3WTwog3rF3tSFoA-426" vertex="1">
          <mxGeometry y="0.5" width="44" height="39" relative="1" as="geometry">
            <mxPoint x="5" y="-19.5" as="offset" />
          </mxGeometry>
        </mxCell>
        <mxCell id="adgGO3WTwog3rF3tSFoA-522" style="edgeStyle=orthogonalEdgeStyle;rounded=0;orthogonalLoop=1;jettySize=auto;html=1;entryX=0;entryY=0.5;entryDx=0;entryDy=0;entryPerimeter=0;endArrow=classic;endFill=1;" parent="1" source="adgGO3WTwog3rF3tSFoA-428" target="adgGO3WTwog3rF3tSFoA-520" edge="1">
          <mxGeometry relative="1" as="geometry" />
        </mxCell>
        <mxCell id="adgGO3WTwog3rF3tSFoA-428" value="" style="strokeColor=#dddddd;shadow=1;strokeWidth=1;rounded=1;absoluteArcSize=1;arcSize=2;" parent="1" vertex="1">
          <mxGeometry x="350" y="190" width="160" height="40" as="geometry" />
        </mxCell>
        <mxCell id="adgGO3WTwog3rF3tSFoA-429" value="Show Dead Drop" style="dashed=0;connectable=0;html=1;fillColor=#5184F3;strokeColor=none;shape=mxgraph.gcp2.hexIcon;prIcon=cloud_endpoints;part=1;labelPosition=right;verticalLabelPosition=middle;align=left;verticalAlign=middle;spacingLeft=5;fontColor=#999999;fontSize=12;" parent="adgGO3WTwog3rF3tSFoA-428" vertex="1">
          <mxGeometry y="0.5" width="44" height="39" relative="1" as="geometry">
            <mxPoint x="5" y="-19.5" as="offset" />
          </mxGeometry>
        </mxCell>
        <mxCell id="adgGO3WTwog3rF3tSFoA-430" value="" style="strokeColor=#dddddd;shadow=1;strokeWidth=1;rounded=1;absoluteArcSize=1;arcSize=2;" parent="1" vertex="1">
          <mxGeometry x="350" y="240" width="160" height="40" as="geometry" />
        </mxCell>
        <mxCell id="adgGO3WTwog3rF3tSFoA-431" value="Get Public Key" style="dashed=0;connectable=0;html=1;fillColor=#5184F3;strokeColor=none;shape=mxgraph.gcp2.hexIcon;prIcon=cloud_endpoints;part=1;labelPosition=right;verticalLabelPosition=middle;align=left;verticalAlign=middle;spacingLeft=5;fontColor=#999999;fontSize=12;" parent="adgGO3WTwog3rF3tSFoA-430" vertex="1">
          <mxGeometry y="0.5" width="44" height="39" relative="1" as="geometry">
            <mxPoint x="5" y="-19.5" as="offset" />
          </mxGeometry>
        </mxCell>
        <mxCell id="adgGO3WTwog3rF3tSFoA-523" style="edgeStyle=orthogonalEdgeStyle;rounded=0;orthogonalLoop=1;jettySize=auto;html=1;entryX=-0.017;entryY=0.7;entryDx=0;entryDy=0;entryPerimeter=0;endArrow=classic;endFill=1;" parent="1" source="adgGO3WTwog3rF3tSFoA-434" target="adgGO3WTwog3rF3tSFoA-520" edge="1">
          <mxGeometry relative="1" as="geometry" />
        </mxCell>
        <mxCell id="adgGO3WTwog3rF3tSFoA-434" value="" style="strokeColor=#dddddd;shadow=1;strokeWidth=1;rounded=1;absoluteArcSize=1;arcSize=2;" parent="1" vertex="1">
          <mxGeometry x="350" y="290" width="160" height="40" as="geometry" />
        </mxCell>
        <mxCell id="adgGO3WTwog3rF3tSFoA-435" value="Place Dead Drop" style="dashed=0;connectable=0;html=1;fillColor=#5184F3;strokeColor=none;shape=mxgraph.gcp2.hexIcon;prIcon=cloud_endpoints;part=1;labelPosition=right;verticalLabelPosition=middle;align=left;verticalAlign=middle;spacingLeft=5;fontColor=#999999;fontSize=12;" parent="adgGO3WTwog3rF3tSFoA-434" vertex="1">
          <mxGeometry y="0.5" width="44" height="39" relative="1" as="geometry">
            <mxPoint x="5" y="-19.5" as="offset" />
          </mxGeometry>
        </mxCell>
        <mxCell id="adgGO3WTwog3rF3tSFoA-453" style="edgeStyle=orthogonalEdgeStyle;rounded=0;orthogonalLoop=1;jettySize=auto;html=1;entryX=0;entryY=0.5;entryDx=0;entryDy=0;exitX=1;exitY=0.5;exitDx=0;exitDy=0;exitPerimeter=0;" parent="1" source="adgGO3WTwog3rF3tSFoA-525" target="adgGO3WTwog3rF3tSFoA-426" edge="1">
          <mxGeometry relative="1" as="geometry">
            <mxPoint x="307" y="165" as="sourcePoint" />
          </mxGeometry>
        </mxCell>
        <mxCell id="adgGO3WTwog3rF3tSFoA-468" style="edgeStyle=orthogonalEdgeStyle;rounded=0;orthogonalLoop=1;jettySize=auto;html=1;entryX=0;entryY=0.5;entryDx=0;entryDy=0;exitX=1;exitY=0.5;exitDx=0;exitDy=0;exitPerimeter=0;" parent="1" source="adgGO3WTwog3rF3tSFoA-526" target="adgGO3WTwog3rF3tSFoA-428" edge="1">
          <mxGeometry relative="1" as="geometry">
            <mxPoint x="307" y="375" as="sourcePoint" />
          </mxGeometry>
        </mxCell>
        <mxCell id="adgGO3WTwog3rF3tSFoA-519" style="edgeStyle=orthogonalEdgeStyle;rounded=0;orthogonalLoop=1;jettySize=auto;html=1;entryX=1;entryY=0.5;entryDx=0;entryDy=0;endArrow=classic;endFill=1;jumpStyle=arc;exitX=0;exitY=0.5;exitDx=0;exitDy=0;exitPerimeter=0;" parent="1" source="adgGO3WTwog3rF3tSFoA-527" target="adgGO3WTwog3rF3tSFoA-471" edge="1">
          <mxGeometry relative="1" as="geometry">
            <mxPoint x="863" y="205" as="sourcePoint" />
            <Array as="points">
              <mxPoint x="870" y="205" />
              <mxPoint x="685" y="205" />
              <mxPoint x="685" y="530" />
              <mxPoint x="540" y="530" />
              <mxPoint x="540" y="535" />
            </Array>
          </mxGeometry>
        </mxCell>
        <mxCell id="adgGO3WTwog3rF3tSFoA-439" value="" style="strokeWidth=1;shadow=0;dashed=0;align=center;html=1;shape=mxgraph.mockup.forms.rrect;rSize=0;strokeColor=#999999;fillColor=#ffffff;" parent="1" vertex="1">
          <mxGeometry x="60" y="140" width="200" height="200" as="geometry" />
        </mxCell>
        <mxCell id="adgGO3WTwog3rF3tSFoA-440" value="Send Message" style="strokeWidth=1;shadow=0;dashed=0;align=center;html=1;shape=mxgraph.mockup.forms.rrect;rSize=0;strokeColor=#999999;fontColor=#008cff;fontSize=17;fillColor=#ffffff;resizeWidth=1;" parent="adgGO3WTwog3rF3tSFoA-439" vertex="1">
          <mxGeometry width="200" height="30" relative="1" as="geometry" />
        </mxCell>
        <mxCell id="adgGO3WTwog3rF3tSFoA-441" value="&lt;div&gt;Server 1 RSA:&lt;/div&gt;" style="strokeWidth=1;shadow=0;dashed=0;align=center;html=1;shape=mxgraph.mockup.forms.anchor;fontSize=17;fontColor=#666666;align=left;spacingLeft=5;resizeWidth=1;" parent="adgGO3WTwog3rF3tSFoA-439" vertex="1">
          <mxGeometry width="200" height="20" relative="1" as="geometry">
            <mxPoint y="30" as="offset" />
          </mxGeometry>
        </mxCell>
        <mxCell id="adgGO3WTwog3rF3tSFoA-442" value="&amp;nbsp; Server 2" style="strokeWidth=1;shadow=0;dashed=0;align=center;html=1;shape=mxgraph.mockup.forms.anchor;fontSize=17;fontColor=#666666;align=left;spacingLeft=5;resizeWidth=1;" parent="adgGO3WTwog3rF3tSFoA-439" vertex="1">
          <mxGeometry width="200" height="20" relative="1" as="geometry">
            <mxPoint y="50" as="offset" />
          </mxGeometry>
        </mxCell>
        <mxCell id="adgGO3WTwog3rF3tSFoA-443" value="&amp;nbsp; Server 2 RSA:" style="strokeWidth=1;shadow=0;dashed=0;align=center;html=1;shape=mxgraph.mockup.forms.rrect;rSize=0;fontSize=17;align=left;spacingLeft=5;resizeWidth=1;fillColor=none;strokeColor=none;fontColor=#575757;" parent="adgGO3WTwog3rF3tSFoA-439" vertex="1">
          <mxGeometry width="200" height="20" relative="1" as="geometry">
            <mxPoint y="70" as="offset" />
          </mxGeometry>
        </mxCell>
        <mxCell id="adgGO3WTwog3rF3tSFoA-444" value="&amp;nbsp;&amp;nbsp;&amp;nbsp;&amp;nbsp;&amp;nbsp; Client 2 RSA:" style="strokeWidth=1;shadow=0;dashed=0;align=center;html=1;shape=mxgraph.mockup.forms.anchor;fontSize=17;fontColor=#666666;align=left;spacingLeft=5;resizeWidth=1;" parent="adgGO3WTwog3rF3tSFoA-439" vertex="1">
          <mxGeometry width="200" height="20" relative="1" as="geometry">
            <mxPoint y="110" as="offset" />
          </mxGeometry>
        </mxCell>
        <mxCell id="adgGO3WTwog3rF3tSFoA-447" value="&amp;nbsp;&amp;nbsp;&amp;nbsp; Dead Drop UUID" style="strokeWidth=1;shadow=0;dashed=0;align=center;html=1;shape=mxgraph.mockup.forms.anchor;fontSize=17;fontColor=#666666;align=left;spacingLeft=5;resizeWidth=1;" parent="adgGO3WTwog3rF3tSFoA-439" vertex="1">
          <mxGeometry y="-20" width="200" height="20" as="geometry">
            <mxPoint y="110" as="offset" />
          </mxGeometry>
        </mxCell>
        <mxCell id="adgGO3WTwog3rF3tSFoA-448" value="&amp;nbsp;&amp;nbsp;&amp;nbsp;&amp;nbsp;&amp;nbsp;&amp;nbsp;&amp;nbsp;&amp;nbsp; Message" style="strokeWidth=1;shadow=0;dashed=0;align=center;html=1;shape=mxgraph.mockup.forms.anchor;fontSize=17;fontColor=#666666;align=left;spacingLeft=5;resizeWidth=1;" parent="adgGO3WTwog3rF3tSFoA-439" vertex="1">
          <mxGeometry y="20" width="200" height="20" as="geometry">
            <mxPoint y="110" as="offset" />
          </mxGeometry>
        </mxCell>
        <mxCell id="adgGO3WTwog3rF3tSFoA-449" value="&amp;nbsp;&amp;nbsp;&amp;nbsp;&amp;nbsp;&amp;nbsp;&amp;nbsp;&amp;nbsp;&amp;nbsp; Server 1" style="strokeWidth=1;shadow=0;dashed=0;align=center;html=1;shape=mxgraph.mockup.forms.anchor;fontSize=17;fontColor=#666666;align=left;spacingLeft=5;resizeWidth=1;" parent="adgGO3WTwog3rF3tSFoA-439" vertex="1">
          <mxGeometry y="40" width="200" height="20" as="geometry">
            <mxPoint y="110" as="offset" />
          </mxGeometry>
        </mxCell>
        <mxCell id="adgGO3WTwog3rF3tSFoA-450" value="&amp;nbsp;&amp;nbsp;&amp;nbsp;&amp;nbsp;&amp;nbsp;&amp;nbsp;&amp;nbsp;&amp;nbsp; Dead Drop UUID" style="strokeWidth=1;shadow=0;dashed=0;align=center;html=1;shape=mxgraph.mockup.forms.anchor;fontSize=17;fontColor=#666666;align=left;spacingLeft=5;resizeWidth=1;" parent="adgGO3WTwog3rF3tSFoA-439" vertex="1">
          <mxGeometry y="60" width="200" height="20" as="geometry">
            <mxPoint y="110" as="offset" />
          </mxGeometry>
        </mxCell>
        <mxCell id="adgGO3WTwog3rF3tSFoA-445" value="" style="strokeWidth=1;shadow=0;dashed=0;align=center;html=1;shape=mxgraph.mockup.forms.anchor;fontSize=17;fontColor=#666666;align=left;spacingLeft=5;resizeWidth=1;" parent="1" vertex="1">
          <mxGeometry x="90" y="240" width="150" height="20" as="geometry">
            <mxPoint y="90" as="offset" />
          </mxGeometry>
        </mxCell>
        <mxCell id="adgGO3WTwog3rF3tSFoA-458" value="" style="strokeWidth=1;shadow=0;dashed=0;align=center;html=1;shape=mxgraph.mockup.forms.rrect;rSize=0;strokeColor=#999999;fillColor=#ffffff;" parent="1" vertex="1">
          <mxGeometry x="60" y="350" width="200" height="80" as="geometry" />
        </mxCell>
        <mxCell id="adgGO3WTwog3rF3tSFoA-459" value="Check Message" style="strokeWidth=1;shadow=0;dashed=0;align=center;html=1;shape=mxgraph.mockup.forms.rrect;rSize=0;strokeColor=#999999;fontColor=#008cff;fontSize=17;fillColor=#ffffff;resizeWidth=1;" parent="adgGO3WTwog3rF3tSFoA-458" vertex="1">
          <mxGeometry width="200" height="30" relative="1" as="geometry" />
        </mxCell>
        <mxCell id="adgGO3WTwog3rF3tSFoA-460" value="&lt;div&gt;Server 1 RSA:&lt;/div&gt;" style="strokeWidth=1;shadow=0;dashed=0;align=center;html=1;shape=mxgraph.mockup.forms.anchor;fontSize=17;fontColor=#666666;align=left;spacingLeft=5;resizeWidth=1;" parent="adgGO3WTwog3rF3tSFoA-458" vertex="1">
          <mxGeometry width="200" height="20" relative="1" as="geometry">
            <mxPoint y="30" as="offset" />
          </mxGeometry>
        </mxCell>
        <mxCell id="adgGO3WTwog3rF3tSFoA-461" value="&amp;nbsp; Dead Drop UUID" style="strokeWidth=1;shadow=0;dashed=0;align=center;html=1;shape=mxgraph.mockup.forms.anchor;fontSize=17;fontColor=#666666;align=left;spacingLeft=5;resizeWidth=1;" parent="adgGO3WTwog3rF3tSFoA-458" vertex="1">
          <mxGeometry width="200" height="20" relative="1" as="geometry">
            <mxPoint y="50" as="offset" />
          </mxGeometry>
        </mxCell>
        <mxCell id="adgGO3WTwog3rF3tSFoA-469" value="" style="strokeColor=#dddddd;shadow=1;strokeWidth=1;rounded=1;absoluteArcSize=1;arcSize=2;" parent="1" vertex="1">
          <mxGeometry x="340" y="460" width="160" height="40" as="geometry" />
        </mxCell>
        <mxCell id="adgGO3WTwog3rF3tSFoA-470" value="Send Message" style="dashed=0;connectable=0;html=1;fillColor=#5184F3;strokeColor=none;shape=mxgraph.gcp2.hexIcon;prIcon=cloud_endpoints;part=1;labelPosition=right;verticalLabelPosition=middle;align=left;verticalAlign=middle;spacingLeft=5;fontColor=#999999;fontSize=12;" parent="adgGO3WTwog3rF3tSFoA-469" vertex="1">
          <mxGeometry y="0.5" width="44" height="39" relative="1" as="geometry">
            <mxPoint x="5" y="-19.5" as="offset" />
          </mxGeometry>
        </mxCell>
        <mxCell id="adgGO3WTwog3rF3tSFoA-524" style="edgeStyle=orthogonalEdgeStyle;rounded=0;orthogonalLoop=1;jettySize=auto;html=1;entryX=0;entryY=0.5;entryDx=0;entryDy=0;entryPerimeter=0;endArrow=classic;endFill=1;" parent="1" source="adgGO3WTwog3rF3tSFoA-471" target="adgGO3WTwog3rF3tSFoA-521" edge="1">
          <mxGeometry relative="1" as="geometry">
            <Array as="points">
              <mxPoint x="543" y="550" />
              <mxPoint x="543" y="590" />
            </Array>
          </mxGeometry>
        </mxCell>
        <mxCell id="adgGO3WTwog3rF3tSFoA-471" value="" style="strokeColor=#dddddd;shadow=1;strokeWidth=1;rounded=1;absoluteArcSize=1;arcSize=2;" parent="1" vertex="1">
          <mxGeometry x="340" y="515" width="160" height="40" as="geometry" />
        </mxCell>
        <mxCell id="adgGO3WTwog3rF3tSFoA-472" value="&lt;div&gt;Show Dead Drop&lt;/div&gt;" style="dashed=0;connectable=0;html=1;fillColor=#5184F3;strokeColor=none;shape=mxgraph.gcp2.hexIcon;prIcon=cloud_endpoints;part=1;labelPosition=right;verticalLabelPosition=middle;align=left;verticalAlign=middle;spacingLeft=5;fontColor=#999999;fontSize=12;" parent="adgGO3WTwog3rF3tSFoA-471" vertex="1">
          <mxGeometry y="0.5" width="44" height="39" relative="1" as="geometry">
            <mxPoint x="5" y="-19.5" as="offset" />
          </mxGeometry>
        </mxCell>
        <mxCell id="adgGO3WTwog3rF3tSFoA-473" value="" style="strokeColor=#dddddd;shadow=1;strokeWidth=1;rounded=1;absoluteArcSize=1;arcSize=2;" parent="1" vertex="1">
          <mxGeometry x="340" y="570" width="160" height="40" as="geometry" />
        </mxCell>
        <mxCell id="adgGO3WTwog3rF3tSFoA-474" value="Get Public Key" style="dashed=0;connectable=0;html=1;fillColor=#5184F3;strokeColor=none;shape=mxgraph.gcp2.hexIcon;prIcon=cloud_endpoints;part=1;labelPosition=right;verticalLabelPosition=middle;align=left;verticalAlign=middle;spacingLeft=5;fontColor=#999999;fontSize=12;" parent="adgGO3WTwog3rF3tSFoA-473" vertex="1">
          <mxGeometry y="0.5" width="44" height="39" relative="1" as="geometry">
            <mxPoint x="5" y="-19.5" as="offset" />
          </mxGeometry>
        </mxCell>
        <mxCell id="adgGO3WTwog3rF3tSFoA-478" style="edgeStyle=orthogonalEdgeStyle;orthogonalLoop=1;jettySize=auto;html=1;rounded=0;endArrow=none;endFill=0;" parent="1" source="adgGO3WTwog3rF3tSFoA-475" edge="1">
          <mxGeometry relative="1" as="geometry">
            <mxPoint x="720" y="400" as="targetPoint" />
          </mxGeometry>
        </mxCell>
        <mxCell id="9kyEcJU3JGsvuPq7zOSI-18" style="edgeStyle=orthogonalEdgeStyle;rounded=0;orthogonalLoop=1;jettySize=auto;html=1;exitX=1;exitY=0.25;exitDx=0;exitDy=0;entryX=0.017;entryY=0.667;entryDx=0;entryDy=0;entryPerimeter=0;fontFamily=Helvetica;fontSize=24;fontColor=#575757;" edge="1" parent="1" source="adgGO3WTwog3rF3tSFoA-475" target="adgGO3WTwog3rF3tSFoA-521">
          <mxGeometry relative="1" as="geometry" />
        </mxCell>
        <mxCell id="adgGO3WTwog3rF3tSFoA-475" value="" style="strokeColor=#dddddd;shadow=1;strokeWidth=1;rounded=1;absoluteArcSize=1;arcSize=2;" parent="1" vertex="1">
          <mxGeometry x="340" y="630" width="160" height="40" as="geometry" />
        </mxCell>
        <mxCell id="adgGO3WTwog3rF3tSFoA-476" value="Place Dead Drop" style="dashed=0;connectable=0;html=1;fillColor=#5184F3;strokeColor=none;shape=mxgraph.gcp2.hexIcon;prIcon=cloud_endpoints;part=1;labelPosition=right;verticalLabelPosition=middle;align=left;verticalAlign=middle;spacingLeft=5;fontColor=#999999;fontSize=12;" parent="adgGO3WTwog3rF3tSFoA-475" vertex="1">
          <mxGeometry y="0.5" width="44" height="39" relative="1" as="geometry">
            <mxPoint x="5" y="-19.5" as="offset" />
          </mxGeometry>
        </mxCell>
        <mxCell id="adgGO3WTwog3rF3tSFoA-479" value="" style="strokeWidth=1;shadow=0;dashed=0;align=center;html=1;shape=mxgraph.mockup.forms.rrect;rSize=0;strokeColor=#999999;fillColor=#ffffff;" parent="1" vertex="1">
          <mxGeometry x="910" y="180" width="190" height="80" as="geometry" />
        </mxCell>
        <mxCell id="adgGO3WTwog3rF3tSFoA-480" value="Check Message" style="strokeWidth=1;shadow=0;dashed=0;align=center;html=1;shape=mxgraph.mockup.forms.rrect;rSize=0;strokeColor=#999999;fontColor=#008cff;fontSize=17;fillColor=#ffffff;resizeWidth=1;" parent="adgGO3WTwog3rF3tSFoA-479" vertex="1">
          <mxGeometry width="190" height="30" relative="1" as="geometry" />
        </mxCell>
        <mxCell id="adgGO3WTwog3rF3tSFoA-481" value="&lt;div&gt;Server 1 RSA:&lt;/div&gt;" style="strokeWidth=1;shadow=0;dashed=0;align=center;html=1;shape=mxgraph.mockup.forms.anchor;fontSize=17;fontColor=#666666;align=left;spacingLeft=5;resizeWidth=1;" parent="adgGO3WTwog3rF3tSFoA-479" vertex="1">
          <mxGeometry width="190" height="20" relative="1" as="geometry">
            <mxPoint y="30" as="offset" />
          </mxGeometry>
        </mxCell>
        <mxCell id="adgGO3WTwog3rF3tSFoA-482" value="&amp;nbsp; Dead Drop UUID" style="strokeWidth=1;shadow=0;dashed=0;align=center;html=1;shape=mxgraph.mockup.forms.anchor;fontSize=17;fontColor=#666666;align=left;spacingLeft=5;resizeWidth=1;" parent="adgGO3WTwog3rF3tSFoA-479" vertex="1">
          <mxGeometry width="190" height="20" relative="1" as="geometry">
            <mxPoint y="50" as="offset" />
          </mxGeometry>
        </mxCell>
        <mxCell id="adgGO3WTwog3rF3tSFoA-513" value="" style="strokeWidth=1;shadow=0;dashed=0;align=center;html=1;shape=mxgraph.mockup.forms.rrect;rSize=0;strokeColor=#999999;fillColor=#ffffff;" parent="1" vertex="1">
          <mxGeometry x="910" y="140" width="190" height="30" as="geometry" />
        </mxCell>
        <mxCell id="adgGO3WTwog3rF3tSFoA-514" value="Send Message" style="strokeWidth=1;shadow=0;dashed=0;align=center;html=1;shape=mxgraph.mockup.forms.rrect;rSize=0;strokeColor=#999999;fontColor=#008cff;fontSize=17;fillColor=#ffffff;resizeWidth=1;" parent="adgGO3WTwog3rF3tSFoA-513" vertex="1">
          <mxGeometry width="190" height="30" relative="1" as="geometry" />
        </mxCell>
        <mxCell id="adgGO3WTwog3rF3tSFoA-515" value="" style="strokeWidth=1;shadow=0;dashed=0;align=center;html=1;shape=mxgraph.mockup.forms.anchor;fontSize=17;fontColor=#666666;align=left;spacingLeft=5;resizeWidth=1;" parent="adgGO3WTwog3rF3tSFoA-513" vertex="1">
          <mxGeometry width="190" height="20" relative="1" as="geometry">
            <mxPoint y="30" as="offset" />
          </mxGeometry>
        </mxCell>
        <mxCell id="adgGO3WTwog3rF3tSFoA-516" value="" style="strokeWidth=1;shadow=0;dashed=0;align=center;html=1;shape=mxgraph.mockup.forms.anchor;fontSize=17;fontColor=#666666;align=left;spacingLeft=5;resizeWidth=1;" parent="adgGO3WTwog3rF3tSFoA-513" vertex="1">
          <mxGeometry width="190" height="20" relative="1" as="geometry">
            <mxPoint y="50" as="offset" />
          </mxGeometry>
        </mxCell>
        <mxCell id="adgGO3WTwog3rF3tSFoA-517" value="" style="strokeWidth=1;shadow=0;dashed=0;align=center;html=1;shape=mxgraph.mockup.forms.rrect;rSize=0;fontSize=17;fontColor=#666666;align=left;spacingLeft=5;fillColor=#ddeeff;strokeColor=none;resizeWidth=1;" parent="adgGO3WTwog3rF3tSFoA-513" vertex="1">
          <mxGeometry height="20" relative="1" as="geometry">
            <mxPoint x="190" y="70" as="offset" />
          </mxGeometry>
        </mxCell>
        <mxCell id="adgGO3WTwog3rF3tSFoA-518" value="" style="strokeWidth=1;shadow=0;dashed=0;align=center;html=1;shape=mxgraph.mockup.forms.anchor;fontSize=17;fontColor=#666666;align=left;spacingLeft=5;resizeWidth=1;" parent="adgGO3WTwog3rF3tSFoA-513" vertex="1">
          <mxGeometry width="190" height="20" relative="1" as="geometry">
            <mxPoint y="90" as="offset" />
          </mxGeometry>
        </mxCell>
        <mxCell id="adgGO3WTwog3rF3tSFoA-520" value="" style="strokeWidth=2;html=1;shape=mxgraph.flowchart.database;whiteSpace=wrap;" parent="1" vertex="1">
          <mxGeometry x="575" y="200" width="60" height="60" as="geometry" />
        </mxCell>
        <mxCell id="adgGO3WTwog3rF3tSFoA-521" value="" style="strokeWidth=2;html=1;shape=mxgraph.flowchart.database;whiteSpace=wrap;" parent="1" vertex="1">
          <mxGeometry x="585" y="560" width="60" height="60" as="geometry" />
        </mxCell>
        <mxCell id="adgGO3WTwog3rF3tSFoA-525" value="fn" style="shape=mxgraph.electrical.abstract.function;html=1;shadow=0;dashed=0;align=center;strokeWidth=1;fontSize=24" parent="1" vertex="1">
          <mxGeometry x="240" y="135" width="50" height="50" as="geometry" />
        </mxCell>
        <mxCell id="adgGO3WTwog3rF3tSFoA-526" value="fn" style="shape=mxgraph.electrical.abstract.function;html=1;shadow=0;dashed=0;align=center;strokeWidth=1;fontSize=24" parent="1" vertex="1">
          <mxGeometry x="240" y="340" width="50" height="50" as="geometry" />
        </mxCell>
        <mxCell id="adgGO3WTwog3rF3tSFoA-527" value="fn" style="shape=mxgraph.electrical.abstract.function;html=1;shadow=0;dashed=0;align=center;strokeWidth=1;fontSize=24" parent="1" vertex="1">
          <mxGeometry x="870" y="170" width="50" height="50" as="geometry" />
        </mxCell>
      </root>
    </mxGraphModel>
  </diagram>
</mxfile>
